<?xml version="1.0" encoding="utf-8"?>
<!-- Generator: Adobe Illustrator 27.6.1, SVG Export Plug-In . SVG Version: 6.00 Build 0)  -->
<svg version="1.1" id="Layer_1" xmlns="http://www.w3.org/2000/svg" xmlns:xlink="http://www.w3.org/1999/xlink" x="0px" y="0px"
	 viewBox="0 0 223.2 223.3" style="enable-background:new 0 0 223.2 223.3;" xml:space="preserve">
<style type="text/css">
	.st0{fill:#FFFFFF;}
</style>
<g id="Layer_2_00000080175759312125561070000015040482787718361023_">
	<g id="Layer_3">
		<path class="st0" d="M214,74.4V55.8h-9.3v-9.3h-9.3v-9.3h-9.3v-9.3h-9.3v-9.3h-9.3V9.3h-18.6V0H74.4v9.3H55.8v9.3h-9.3v9.3h-9.3
			v9.3h-9.3v9.3h-9.3v9.3H9.3v18.6H0v74.4h9.3v18.6h9.3v9.3h9.3v9.3h9.3v9.3h9.3v9.3h9.3v9.3h18.6v9.3h74.4V214h18.6v-9.3h9.3v-9.3
			h9.3v-9.3h9.3v-9.3h9.3v-9.3h9.3v-18.6h9.3V74.4H214z M74.5,74.4h9.3v9.3H93V93h9.3v9.3h9.3V74.4h9.3v-9.3h27.9v9.3h27.9v9.3h-9.3
			V93h-9.3v46.5h-9.3v9.3h-9.3v9.3h-18.6v9.3H74.4v-9.3h-9.3v-9.3H93v-9.3h-9.3v-9.3h-9.3v-9.3h-9.3V74.4H74.5z"/>
	</g>
</g>
</svg>
