<?xml version="1.0" encoding="utf-8"?>
<!-- Generator: Adobe Illustrator 27.6.1, SVG Export Plug-In . SVG Version: 6.00 Build 0)  -->
<svg version="1.1" id="Layer_1" xmlns="http://www.w3.org/2000/svg" xmlns:xlink="http://www.w3.org/1999/xlink" x="0px" y="0px"
	 viewBox="0 0 223.2 223.3" style="enable-background:new 0 0 223.2 223.3;" xml:space="preserve">
<style type="text/css">
	.st0{fill:#FFFFFF;}
</style>
<g id="Layer_2_00000085951626765056725790000016575328974179819652_">
	<g id="Layer_7">
		<path class="st0" d="M214,74.4V55.8h-9.3v-9.3h-9.3v-9.3h-9.3v-9.3h-9.3v-9.3h-9.3V9.3h-18.6V0H74.4v9.3H55.8v9.3h-9.3v9.3h-9.3
			v9.3h-9.3v9.3h-9.3v9.3H9.3v18.6H0v74.4h9.3v18.6h9.3v9.3h9.3v9.3h9.3v9.3h9.3v9.3h9.3v9.3h18.6v9.3h74.4V214h18.6v-9.3h9.3v-9.3
			h9.3v-9.3h9.3v-9.3h9.3v-9.3h9.3v-18.6h9.3V74.4H214z M204.7,130.2h-9.3v9.3h-9.3v9.3h-9.3v9.3h-9.3v9.3h-9.3v9.3h-93v-9.3h-9.4
			v-9.3h-9.3v-9.3h-9.3v-18.6h37.2v9.3h9.3v9.3h27.9v-18.6H93v-18.6h9.3V65.1H93v-9.3h-9.3v-9.3h-9.3v-9.3H93v9.3h18.6v-9.3h9.3
			v27.9h9.3v9.3h9.3v9.3h9.3V93h9.3v27.9h-9.3v9.3h-27.9v18.6h27.9v-9.3h9.3v-9.3h18.6v-9.3h27.9L204.7,130.2z M93,74.4v27.9h-9.3
			v18.6H37.2v-9.3h9.3v-9.3h9.3V93h9.3v-9.3h9.3V65.1h9.3v9.3L93,74.4z"/>
	</g>
</g>
</svg>
