<?xml version="1.0" encoding="utf-8"?>
<!-- Generator: Adobe Illustrator 27.6.1, SVG Export Plug-In . SVG Version: 6.00 Build 0)  -->
<svg version="1.1" id="Layer_1" xmlns="http://www.w3.org/2000/svg" xmlns:xlink="http://www.w3.org/1999/xlink" x="0px" y="0px"
	 viewBox="0 0 223.2 223.3" style="enable-background:new 0 0 223.2 223.3;" xml:space="preserve">
<style type="text/css">
	.st0{fill:#FFFFFF;}
</style>
<g>
	<polygon class="st0" points="214,130.2 204.7,130.2 204.7,139.5 195.4,139.5 195.4,148.8 186,148.8 186,158.1 176.7,158.1 
		167.4,158.1 167.4,167.4 158.1,167.4 148.8,167.4 148.8,176.7 139.5,176.7 130.2,176.7 120.9,176.7 120.9,186 111.6,186 102.3,186 
		93,186 93,195.4 83.7,195.4 74.4,195.4 74.4,204.7 65.1,204.7 55.8,204.7 55.8,214 65.1,214 74.4,214 74.4,223.3 83.7,223.3 
		93,223.3 102.3,223.3 111.6,223.3 120.9,223.3 130.2,223.3 139.5,223.3 148.8,223.3 148.8,214 158.1,214 167.4,214 167.4,204.7 
		176.7,204.7 176.7,195.4 186,195.4 186,186 195.4,186 195.4,176.7 204.7,176.7 204.7,167.4 214,167.4 214,158.1 214,148.8 
		223.2,148.8 223.2,139.5 223.2,130.2 223.2,120.9 214,120.9 	"/>
	<polygon class="st0" points="214,74.4 214,65.1 214,55.8 204.7,55.8 204.7,46.5 195.4,46.5 195.4,37.2 186,37.2 186,27.9 
		176.7,27.9 176.7,18.6 167.4,18.6 167.4,9.3 158.1,9.3 148.8,9.3 148.8,0 139.5,0 130.2,0 120.9,0 111.6,0 102.3,0 93,0 83.7,0 
		74.4,0 74.4,9.3 65.1,9.3 55.8,9.3 55.8,18.6 46.5,18.6 46.5,27.9 37.2,27.9 37.2,37.2 27.9,37.2 27.9,46.5 18.6,46.5 18.6,55.8 
		9.3,55.8 9.3,65.1 9.3,74.4 0,74.4 0,83.7 0,93 0,102.3 0,111.6 0,120.9 0,130.2 0,139.5 0,148.8 9.3,148.8 9.3,158.1 9.3,167.4 
		18.6,167.4 18.6,176.7 27.9,176.7 27.9,167.4 37.2,167.4 46.5,167.4 46.5,158.1 46.5,148.8 46.5,139.5 46.5,130.2 46.5,120.9 
		46.5,111.6 46.5,102.3 55.8,102.3 55.8,93 65.1,93 74.4,93 74.4,102.3 83.7,102.3 83.7,111.6 83.7,120.9 83.7,130.2 83.7,139.5 
		83.7,148.8 83.7,158.1 83.7,167.4 93,167.4 93,158.1 93,148.8 93,139.5 93,130.2 93,120.9 93,111.6 93,102.3 93,93 93,83.7 
		93,74.4 102.3,74.4 102.3,65.1 111.6,65.1 120.9,65.1 120.9,74.4 130.2,74.4 130.2,83.7 130.2,93 130.2,102.3 130.2,111.6 
		130.2,120.9 130.2,130.2 130.2,139.5 130.2,148.8 139.5,148.8 139.5,139.5 139.5,130.2 139.5,120.9 139.5,111.6 139.5,102.3 
		139.5,93 139.5,83.7 139.5,74.4 139.5,65.1 139.5,55.8 148.8,55.8 148.8,46.5 158.1,46.5 167.4,46.5 167.4,55.8 176.7,55.8 
		176.7,65.1 176.7,74.4 176.7,83.7 176.7,93 176.7,102.3 176.7,111.6 176.7,120.9 186,120.9 186,111.6 195.4,111.6 195.4,102.3 
		204.7,102.3 204.7,93 214,93 214,83.7 223.2,83.7 223.2,74.4 	"/>
</g>
</svg>
